<svg width="27" height="26" viewBox="0 0 27 26" fill="none" xmlns="http://www.w3.org/2000/svg">
<g id="App_Store_(iOS)">
<path id="Path" d="M21.0288 0H5.77118C2.91358 0 0.599976 2.3136 0.599976 5.1712V20.432C0.599976 23.2864 2.91358 25.6 5.77118 25.6H21.032C23.8864 25.6 26.2032 23.2864 26.2032 20.4288V5.1712C26.2 2.3136 23.8864 0 21.0288 0Z" fill="url(#paint0_linear)"/>
<path id="Shape" fill-rule="evenodd" clip-rule="evenodd" d="M13.2912 5.88159L13.8096 4.98559C14.1296 4.42559 14.8432 4.23679 15.4032 4.55679C15.9632 4.87679 16.152 5.59039 15.832 6.15039L10.8368 14.7968H14.4496C15.6208 14.7968 16.2768 16.1728 15.768 17.1264H5.17597C4.52957 17.1264 4.01117 16.608 4.01117 15.9616C4.01117 15.3152 4.52957 14.7968 5.17597 14.7968H8.14557L11.9472 8.20799L10.76 6.14719C10.44 5.58719 10.6288 4.87999 11.1888 4.55359C11.7488 4.23359 12.456 4.42239 12.7824 4.98239L13.2912 5.88159ZM8.79837 18.3264L7.67837 20.2688C7.35837 20.8288 6.64477 21.0176 6.08477 20.6976C5.52477 20.3776 5.33597 19.664 5.65597 19.104L6.48797 17.664C7.42877 17.3728 8.19357 17.5968 8.79837 18.3264ZM21.4736 14.8032H18.4432C18.2113 14.4017 17.9883 14.0154 17.7741 13.6445C16.5784 11.5736 15.6582 9.97989 15.0096 8.86719C14.3216 9.43999 13.624 11.1296 14.6 12.8128C15.0232 13.5471 15.5417 14.4447 16.1548 15.5062C16.923 16.8362 17.8398 18.4233 18.904 20.2688C19.2304 20.8288 19.9376 21.0176 20.4976 20.6976C21.0576 20.3712 21.2464 19.664 20.9264 19.104L19.7904 17.1328H21.4736C22.12 17.1328 22.6384 16.6144 22.6384 15.968C22.6384 15.3216 22.12 14.8032 21.4736 14.8032Z" fill="white"/>
</g>
<defs>
<linearGradient id="paint0_linear" x1="0.599976" y1="0" x2="0.599976" y2="25.6" gradientUnits="userSpaceOnUse">
<stop stop-color="#18BFFB"/>
<stop offset="1" stop-color="#2072F3"/>
</linearGradient>
</defs>
</svg>
