<svg width="27" height="27" viewBox="0 0 27 27" fill="none" xmlns="http://www.w3.org/2000/svg">
<g id="Group 4">
<g id="huawei-app-badge-9757fa 2 copy">
<g id="Group">
<g id="Group_2">
<g id="&#229;&#189;&#162;&#231;&#138;&#182;_1_&#230;&#139;&#183;&#232;&#180;&#157;_25_32_">
<path id="Path" fill-rule="evenodd" clip-rule="evenodd" d="M18.776 0.0656128H7.42083C2.07203 0.0656128 0.115234 2.02241 0.115234 7.37121V18.7264C0.115234 24.0752 2.07203 26.032 7.42083 26.032H18.7728C24.1216 26.032 26.0816 24.0752 26.0816 18.7264V7.37121C26.0816 2.02241 24.1248 0.0656128 18.776 0.0656128Z" fill="white"/>
</g>
</g>
</g>
</g>
<g id="google-play">
<path id="Path_2" d="M14.6599 12.6136L9.22374 17.8483C8.96917 17.6743 8.81803 17.3849 8.8207 17.0766V8.15058C8.81803 7.84226 8.96917 7.55288 9.22374 7.37891L14.6599 12.6136Z" fill="#2196F3"/>
<path id="Path_3" d="M16.5621 10.7852L14.6599 12.6136L9.22374 7.37892C9.24422 7.36304 9.26556 7.34827 9.28763 7.33468C9.57494 7.16054 9.93381 7.15492 10.2264 7.31993L16.5621 10.7852Z" fill="#4CAF50"/>
<path id="Path_4" d="M18.8674 12.6136C18.8709 12.9617 18.6818 13.2832 18.3758 13.4492L16.5621 14.4421L14.66 12.6136L16.5621 10.7852L18.3758 11.778C18.6818 11.944 18.8709 12.2655 18.8674 12.6136Z" fill="#FFC107"/>
<path id="Path_5" d="M16.5621 14.4421L10.2264 17.9073C9.93316 18.0697 9.57565 18.0641 9.28763 17.8925C9.26556 17.8789 9.24422 17.8642 9.22374 17.8483L14.66 12.6136L16.5621 14.4421Z" fill="#F44336"/>
</g>
</g>
</svg>
