<svg width="14" height="16" viewBox="0 0 14 16" fill="none" xmlns="http://www.w3.org/2000/svg">
<g id="Group 2">
<path id="Path_1313" fill-rule="evenodd" clip-rule="evenodd" d="M10.7162 3.8224C10.7162 5.93345 9.05239 7.6448 6.99997 7.6448C4.94756 7.6448 3.28375 5.93345 3.28375 3.8224C3.28375 1.71135 4.94756 0 6.99997 0C9.05239 0 10.7162 1.71135 10.7162 3.8224ZM9.60864 3.8216C9.60864 2.33971 8.4407 1.1384 6.99997 1.1384C6.30811 1.1384 5.64459 1.42109 5.15537 1.92429C4.66615 2.42749 4.39131 3.10997 4.39131 3.8216C4.39131 5.30349 5.55925 6.5048 6.99997 6.5048C8.4407 6.5048 9.60864 5.30349 9.60864 3.8216Z" fill="black"/>
<path id="Path_1314" d="M1.10833 15.532C1.10833 12.1851 3.74612 9.47197 7 9.47197C10.2539 9.47197 12.8917 12.1851 12.8917 15.532H14C14 11.5555 10.866 8.33197 7 8.33197C3.13401 8.33197 0 11.5555 0 15.532H1.10833Z" fill="black"/>
</g>
</svg>
